<?xml version="1.0" encoding="UTF-8" standalone="no"?>
<svg
   viewBox="0 0 291 96"
   version="1.1"
   id="svg2"
   sodipodi:docname="site_logo.svg"
   inkscape:version="1.3.2 (091e20ef0f, 2023-11-25)"
   xmlns:inkscape="http://www.inkscape.org/namespaces/inkscape"
   xmlns:sodipodi="http://sodipodi.sourceforge.net/DTD/sodipodi-0.dtd"
   xmlns="http://www.w3.org/2000/svg"
   xmlns:svg="http://www.w3.org/2000/svg">
  <defs
     id="defs2" />
  <sodipodi:namedview
     id="namedview2"
     pagecolor="#505050"
     bordercolor="#ffffff"
     borderopacity="1"
     inkscape:showpageshadow="0"
     inkscape:pageopacity="0"
     inkscape:pagecheckerboard="1"
     inkscape:deskcolor="#505050"
     inkscape:zoom="1.7371134"
     inkscape:cx="251.8546"
     inkscape:cy="-33.10089"
     inkscape:window-width="1920"
     inkscape:window-height="1001"
     inkscape:window-x="-9"
     inkscape:window-y="-9"
     inkscape:window-maximized="1"
     inkscape:current-layer="g2" />
  <g
     fill="#ffffff"
     fill-rule="evenodd"
     id="g2"
     transform="matrix(0.99930024,0,0,0.99930024,1.4242265e-4,0.05556562)"
     sodipodi:insensitive="true">
    <path
       d="m 21.616886,77.96122 5.296773,-0.51497 q 0.478181,2.666783 1.931115,3.917409 1.471326,1.250628 3.954188,1.250628 2.629996,0 3.95419,-1.103495 1.342583,-1.121885 1.342583,-2.611606 0,-0.956365 -0.570137,-1.618457 -0.551748,-0.680489 -1.949508,-1.17706 -0.956363,-0.33105 -4.358803,-1.17706 -4.377195,-1.085105 -6.142786,-2.666783 -2.482862,-2.225378 -2.482862,-5.42551 0,-2.059858 1.158669,-3.843843 1.177061,-1.802373 3.365658,-2.740339 2.206988,-0.937974 5.315165,-0.937974 5.076074,0 7.632503,2.225379 2.57482,2.225379 2.703561,5.94048 l -5.443907,0.239095 q -0.349438,-2.078248 -1.508107,-2.979436 -1.140279,-0.919585 -3.439224,-0.919585 -2.372513,0 -3.715099,0.974754 -0.864404,0.625313 -0.864404,1.67364 0,0.956355 0.809229,1.636844 1.029929,0.864409 5.002509,1.802375 3.972581,0.937974 5.866911,1.949505 1.912725,0.99315 2.979435,2.740348 1.085104,1.728808 1.085104,4.285236 0,2.317335 -1.287411,4.340407 -1.287411,2.023079 -3.641531,3.01622 -2.354121,0.974754 -5.866911,0.974754 -5.112859,0 -7.853203,-2.354122 -2.740345,-2.37251 -3.2737,-6.896834 z M 53.231999,59.771952 v 9.913057 q 2.501254,-2.924259 5.977261,-2.924259 1.783983,0 3.218525,0.662092 1.434543,0.662101 2.151815,1.692029 0.735662,1.029929 0.993144,2.280556 0.275875,1.250627 0.275875,3.880621 V 86.733993 H 60.680585 V 76.416322 q 0,-3.07139 -0.294263,-3.899011 -0.294268,-0.827621 -1.048321,-1.305803 -0.735663,-0.496571 -1.857549,-0.496571 -1.28741,0 -2.298946,0.625314 -1.011536,0.625313 -1.489717,1.894329 -0.45979,1.250625 -0.45979,3.7151 v 9.784313 H 48.063968 V 59.771952 Z m 21.720448,13.389061 -4.689852,-0.846011 q 0.790838,-2.832302 2.721952,-4.193282 1.931115,-1.36097 5.738171,-1.36097 3.457617,0 5.149641,0.827621 1.692023,0.809223 2.372513,2.078248 0.698879,1.250626 0.698879,4.616279 l -0.05518,6.032444 q 0,2.574818 0.239089,3.807046 0.257482,1.213847 0.937971,2.611605 H 82.95277 q -0.202306,-0.51496 -0.496573,-1.526499 -0.12874,-0.459793 -0.183915,-0.606924 -1.324193,1.287413 -2.832301,1.931116 -1.508112,0.643711 -3.218526,0.643711 -3.016218,0 -4.763417,-1.636852 -1.728808,-1.636854 -1.728808,-4.138107 0,-1.655242 0.790837,-2.942647 0.790838,-1.305803 2.206988,-1.986292 1.434544,-0.69888 4.119714,-1.21384 3.623139,-0.680491 5.020899,-1.269023 v -0.514962 q 0,-1.489722 -0.735664,-2.115034 -0.735662,-0.643703 -2.777126,-0.643703 -1.379368,0 -2.151815,0.551747 -0.772446,0.533359 -1.250625,1.894329 z m 6.915229,4.193284 q -0.993143,0.33104 -3.144958,0.790834 -2.151814,0.459791 -2.81391,0.901185 -1.011536,0.717277 -1.011536,1.820763 0,1.085107 0.80923,1.875948 0.809227,0.790835 2.059855,0.790835 1.39776,0 2.666778,-0.919575 0.937971,-0.698881 1.232236,-1.71042 0.202305,-0.6621 0.202305,-2.519642 z m 28.083934,9.379696 h -4.8002 v -2.869081 q -1.19545,1.673633 -2.83231,2.501253 -1.61845,0.809232 -3.273693,0.809232 -3.36566,0 -5.774955,-2.70356 -2.390903,-2.72196 -2.390903,-7.577334 0,-4.965727 2.335729,-7.540545 2.33573,-2.593208 5.903696,-2.593208 3.273696,0 5.664606,2.72195 v -9.710748 h 5.16803 z M 96.15793,76.545065 q 0,3.126565 0.864403,4.524324 1.250627,2.023079 3.494397,2.023079 1.78398,0 3.03462,-1.508112 1.25062,-1.5265 1.25062,-4.542721 0,-3.365652 -1.21385,-4.836986 -1.21384,-1.489712 -3.10817,-1.489712 -1.839159,0 -3.089786,1.471325 -1.232234,1.452932 -1.232234,4.358803 z m 17.69269,0.147131 q 0,-2.574819 1.26902,-4.984118 1.26903,-2.409296 3.58636,-3.678312 2.33573,-1.269016 5.20482,-1.269016 4.43237,0 7.26467,2.887472 2.8323,2.869089 2.8323,7.264671 0,4.432369 -2.86908,7.356635 -2.85069,2.905869 -7.19112,2.905869 -2.68516,0 -5.13124,-1.213849 -2.42768,-1.213847 -3.69671,-3.549571 -1.26902,-2.354121 -1.26902,-5.719781 z m 5.29678,0.275873 q 0,2.905868 1.37936,4.450759 1.37937,1.544896 3.40245,1.544896 2.02307,0 3.38405,-1.544896 1.37937,-1.544891 1.37937,-4.487537 0,-2.86909 -1.37937,-4.41398 -1.36098,-1.544889 -3.38405,-1.544889 -2.02308,0 -3.40245,1.544889 -1.37936,1.54489 -1.37936,4.450758 z m 22.54808,9.765924 -6.17958,-19.531848 h 5.0209 l 3.65993,12.800535 3.36564,-12.800535 h 4.98412 l 3.25531,12.800535 3.73349,-12.800535 h 5.09447 l -6.27153,19.531848 h -4.96572 l -3.36565,-12.561439 -3.31049,12.561439 z m 48.70088,-9.913055 v -4.542722 h 11.73381 v 10.740686 q -1.71041,1.655233 -4.96571,2.924258 -3.23692,1.250626 -6.5658,1.250626 -4.23007,0 -7.37502,-1.765595 -3.14496,-1.783976 -4.72663,-5.07607 -1.58169,-3.310486 -1.58169,-7.191108 0,-4.211672 1.76559,-7.485369 1.76559,-3.273697 5.16804,-5.020894 2.59322,-1.34259 6.45545,-1.34259 5.02089,0 7.83481,2.115034 2.8323,2.096638 3.64153,5.811738 l -5.40712,1.011532 q -0.57015,-1.986285 -2.15182,-3.126567 -1.56328,-1.158671 -3.9174,-1.158671 -3.56797,0 -5.683,2.262166 -2.09664,2.262166 -2.09664,6.712924 0,4.800198 2.13342,7.209494 2.13342,2.39091 5.59104,2.39091 1.71042,0 3.42083,-0.6621 1.72881,-0.68049 2.96104,-1.636853 v -3.420829 z m 16.71793,9.913055 V 59.771952 h 5.16804 v 26.962041 z m 9.26935,-10.041797 q 0,-2.574819 1.26902,-4.984118 1.26902,-2.409296 3.58634,-3.678312 2.33574,-1.269016 5.20484,-1.269016 4.43237,0 7.26467,2.887472 2.83229,2.869089 2.83229,7.264671 0,4.432369 -2.86908,7.356635 -2.85069,2.905869 -7.1911,2.905869 -2.68518,0 -5.13125,-1.213849 -2.42769,-1.213847 -3.69671,-3.549571 -1.26902,-2.354121 -1.26902,-5.719781 z m 5.29678,0.275873 q 0,2.905868 1.37937,4.450759 1.37936,1.544896 3.40244,1.544896 2.02306,0 3.38404,-1.544896 1.37938,-1.544891 1.37938,-4.487537 0,-2.86909 -1.37938,-4.41398 -1.36098,-1.544889 -3.38404,-1.544889 -2.02308,0 -3.40244,1.544889 -1.37937,1.54489 -1.37937,4.450758 z m 22.54806,9.765924 -6.17957,-19.531848 h 5.02091 l 3.65992,12.800535 3.36565,-12.800535 h 4.98412 l 3.25531,12.800535 3.73348,-12.800535 h 5.09448 l -6.27153,19.531848 h -4.96573 l -3.36565,-12.561439 -3.31048,12.561439 z"
       id="svg_1"
       style="font-weight:bold;font-size:45px;font-family:Helvetica, Arial, sans-serif;display:inline;fill:#ffffff;stroke:#000000;stroke-width:0"
       aria-label="Shadow Glow"
       inkscape:label="path1"
       sodipodi:insensitive="true" />
    <path
       d="M 66.896906,38.848963 H 60.316811 L 57.70112,32.044081 H 45.726164 l -2.472645,6.804882 H 36.836903 L 48.505335,8.8911337 h 6.396181 z M 55.759789,26.996615 51.631903,15.879932 47.585756,26.996615 Z M 70.064345,38.848963 V 8.8911337 H 75.8066 V 38.848963 Z m 11.627561,0 V 8.8911337 h 5.742258 V 38.848963 Z m 15.918927,-15.08109 -5.210945,-0.940014 q 0.87871,-3.147003 3.024391,-4.659199 2.145686,-1.512194 6.375741,-1.512194 3.8418,0 5.72183,0.919577 1.88003,0.899143 2.63613,2.309165 0.77653,1.389584 0.77653,5.129204 l -0.0613,6.702707 q 0,2.860912 0.26565,4.230061 0.28609,1.348716 1.04218,2.901783 h -5.68095 q -0.22479,-0.572183 -0.55175,-1.696113 -0.14305,-0.510876 -0.20434,-0.674357 -1.47133,1.430455 -3.14701,2.145683 -1.67567,0.715228 -3.576134,0.715228 -3.351356,0 -5.29269,-1.818722 -1.920897,-1.818722 -1.920897,-4.597893 0,-1.839157 0.878709,-3.269612 0.878709,-1.450892 2.45221,-2.20699 1.593936,-0.776534 4.577457,-1.348715 4.025705,-0.756099 5.578775,-1.410021 v -0.572182 q 0,-1.655241 -0.8174,-2.350035 -0.8174,-0.715227 -3.0857,-0.715227 -1.532625,0 -2.390903,0.613052 -0.858273,0.592618 -1.389584,2.104814 z m 7.683587,4.659198 q -1.1035,0.367832 -3.4944,0.878709 -2.390902,0.510877 -3.126559,1.001318 -1.123933,0.796968 -1.123933,2.023073 0,1.205669 0.899139,2.084378 0.899145,0.87871 2.288733,0.87871 1.55306,0 2.96308,-1.021754 1.04219,-0.776534 1.36916,-1.900464 0.22478,-0.735662 0.22478,-2.799605 z m 31.04089,10.421892 h -5.74225 V 27.773148 q 0,-3.514834 -0.36784,-4.536587 -0.36782,-1.042189 -1.20566,-1.614371 -0.8174,-0.572183 -1.98221,-0.572183 -1.49176,0 -2.67699,0.817404 -1.18523,0.817403 -1.6348,2.166118 -0.42914,1.348714 -0.42914,4.986159 v 9.829275 h -5.74226 V 17.146906 h 5.33356 v 3.187873 q 2.84047,-3.678313 7.15228,-3.678313 1.90045,0 3.47396,0.69479 1.57348,0.674358 2.37047,1.736982 0.81741,1.062625 1.12392,2.411341 0.32696,1.348716 0.32696,3.86223 z m 15.95979,-9.747534 5.88532,-0.572182 q 0.5313,2.963086 2.14567,4.352671 1.63481,1.389587 4.39355,1.389587 2.92223,0 4.39354,-1.226106 1.49177,-1.24654 1.49177,-2.901781 0,-1.062624 -0.63349,-1.798288 -0.61305,-0.756098 -2.16612,-1.307845 -1.06262,-0.367832 -4.84311,-1.307844 -4.86355,-1.205672 -6.82531,-2.963087 -2.75875,-2.472644 -2.75875,-6.028349 0,-2.288728 1.28741,-4.270932 1.30786,-2.002638 3.73963,-3.0448269 2.45221,-1.0421899 5.90573,-1.0421899 5.64007,0 8.48056,2.4726448 2.86092,2.472646 3.00396,6.600532 l -6.04879,0.265656 q -0.38826,-2.309164 -1.67566,-3.310483 -1.26699,-1.021754 -3.82137,-1.021754 -2.63612,0 -4.1279,1.08306 -0.96044,0.694791 -0.96044,1.859591 0,1.062623 0.89914,1.818723 1.14437,0.960448 5.55834,2.002637 4.41398,1.04219 6.51881,2.166118 2.12523,1.103495 3.31047,3.044828 1.20567,1.920897 1.20567,4.761373 0,2.574821 -1.43046,4.822679 -1.43044,2.247861 -4.04614,3.351354 -2.61569,1.083059 -6.5188,1.083059 -5.68095,0 -8.72576,-2.615691 -3.04485,-2.636125 -3.63747,-7.663154 z m 39.35798,-11.954523 v 4.577458 h -3.92353 v 8.746215 q 0,2.656561 0.10218,3.106132 0.12259,0.429137 0.51086,0.715227 0.4087,0.286093 0.98089,0.286093 0.79696,0 2.30916,-0.551748 l 0.49044,4.454848 q -2.00264,0.858273 -4.53658,0.858273 -1.55307,0 -2.79962,-0.510877 -1.24653,-0.531312 -1.83916,-1.348715 -0.57217,-0.837838 -0.79695,-2.24786 -0.18392,-1.001317 -0.18392,-4.046145 v -9.461443 h -2.63613 v -4.577458 h 2.63613 v -4.311802 l 5.7627,-3.3513528 v 7.6631548 z m 1.26697,0 h 6.1101 l 5.19051,15.408051 5.06789,-15.408051 h 5.94661 l -7.66316,20.884653 -1.36914,3.78049 q -0.75611,1.900462 -1.4509,2.901781 -0.67435,1.00132 -1.57349,1.614373 -0.87871,0.633487 -2.18656,0.980883 -1.2874,0.347396 -2.92221,0.347396 -1.65524,0 -3.24919,-0.347396 l -0.51086,-4.495718 q 1.34871,0.265655 2.43176,0.265655 2.00264,0 2.9631,-1.185234 0.96045,-1.164799 1.47132,-2.983522 z m 25.99343,21.702057 V 8.8911337 h 5.74225 V 38.848963 Z m 24.19513,-6.907058 5.72183,0.960449 q -1.10349,3.147001 -3.49441,4.802243 -2.37046,1.634807 -5.9466,1.634807 -5.66053,0 -8.37838,-3.69875 -2.14569,-2.963087 -2.14569,-7.479239 0,-5.394861 2.82004,-8.439689 2.82004,-3.06526 7.13185,-3.06526 4.84311,0 7.64272,3.208306 2.79959,3.187873 2.67699,9.788405 h -14.38629 q 0.0612,2.554383 1.38958,3.98484 1.32828,1.41002 3.31048,1.41002 1.34872,0 2.26828,-0.735663 0.91958,-0.735663 1.3896,-2.370469 z m 0.32696,-5.803563 q -0.0612,-2.49308 -1.28741,-3.780491 -1.2261,-1.307844 -2.98352,-1.307844 -1.88003,0 -3.10614,1.36915 -1.22609,1.369152 -1.20566,3.719185 z"
       id="svg_2"
       style="font-weight:bold;font-size:50px;font-family:Helvetica, Arial, sans-serif;display:inline;fill:#ffffff;stroke:#000000;stroke-width:0"
       aria-label="Allan Style"
       inkscape:label="path2"
       sodipodi:insensitive="true" />
  </g>
</svg>
